<svg width="128" height="128" viewBox="0 0 128 128" fill="none" xmlns="http://www.w3.org/2000/svg">
<path d="M61.7277 60.2857C66.9297 65.8193 72.6372 70.855 78.7758 75.3271C79.1552 75.715 79.6083 76.0232 80.1084 76.2336C80.6085 76.444 81.1456 76.5524 81.6882 76.5524C82.2308 76.5524 82.7679 76.444 83.268 76.2336C83.7682 76.0232 84.2212 75.715 84.6006 75.3271C90.7364 70.8549 96.4409 65.8192 101.64 60.2857C106.844 54.8289 111.699 49.0489 116.175 42.9801C120.251 37.475 123.989 31.2328 123.989 24.1739C123.988 19.8484 122.705 15.6203 120.302 12.024C117.898 8.42766 114.483 5.6246 110.487 3.96914C106.49 2.31367 102.093 1.88014 97.8508 2.72334C93.6083 3.56653 89.7111 5.6486 86.6517 8.70635L81.6883 13.6698L76.7248 8.70635C73.6662 5.64642 69.7688 3.56241 65.5256 2.71798C61.2825 1.87355 56.8841 2.30665 52.8871 3.96248C48.8901 5.6183 45.4741 8.42246 43.0711 12.0202C40.6682 15.6179 39.3863 19.8475 39.3877 24.1739C39.3877 31.2329 43.1258 37.475 47.2014 42.9801C51.6743 49.0488 56.5261 54.8288 61.7277 60.2857ZM72.2852 36.3295H78.5894V30.0253C78.5894 29.2047 78.9154 28.4176 79.4957 27.8373C80.076 27.2569 80.8631 26.9309 81.6838 26.9309C82.5045 26.9309 83.2916 27.2569 83.8719 27.8373C84.4522 28.4176 84.7782 29.2047 84.7782 30.0253V36.3295H91.0824C91.9031 36.3295 92.6902 36.6556 93.2705 37.2359C93.8508 37.8162 94.1768 38.6033 94.1768 39.424C94.1768 40.2447 93.8508 41.0317 93.2705 41.6121C92.6902 42.1924 91.9031 42.5184 91.0824 42.5184H84.7782V48.8226C84.7782 49.6433 84.4522 50.4304 83.8719 51.0107C83.2916 51.591 82.5045 51.917 81.6838 51.917C80.8631 51.917 80.076 51.591 79.4957 51.0107C78.9154 50.4304 78.5894 49.6433 78.5894 48.8226V42.5184H72.2852C71.4645 42.5184 70.6774 42.1924 70.0971 41.6121C69.5167 41.0317 69.1907 40.2447 69.1907 39.424C69.1907 38.6033 69.5167 37.8162 70.0971 37.2359C70.6774 36.6556 71.4645 36.3295 72.2852 36.3295Z" fill="#60A5FA"/>
<path d="M115.867 84.8753L79.5025 100.14L76.2616 101.076C75.1098 101.41 73.9239 101.612 72.7267 101.678C70.1285 101.818 66.3441 101.893 65.6877 101.938H44.3313C43.9831 101.937 43.6454 101.818 43.3742 101.599C43.105 101.437 42.8817 101.209 42.7255 100.936C42.5694 100.663 42.4855 100.355 42.4819 100.041C42.4976 99.5311 42.7149 99.0487 43.086 98.6993C43.4572 98.35 43.9518 98.1622 44.4613 98.1773H68.6619C70.15 98.1778 71.5865 97.6324 72.6992 96.6444C73.812 95.6564 74.5236 94.2946 74.6993 92.8169C74.7296 92.5777 74.7445 92.3367 74.7437 92.0956C74.7441 90.6863 74.2551 89.3207 73.3604 88.232C72.4656 87.1433 71.2205 86.3991 69.8379 86.1266C56.3274 83.4703 42.9536 80.2772 29.0807 81.1729C28.5406 81.2071 23.6724 81.4054 21.0947 81.6413V117.568L21.2281 120.566C26.0452 121.153 58.5725 125.133 59.1047 125.227C64.2643 126.143 69.4218 125.898 74.3387 122.967C74.3619 122.952 74.3858 122.939 74.4105 122.926C74.4105 122.926 107.04 104.512 121.337 95.1758C122.559 94.3762 123.438 93.1485 123.802 91.7337C124.166 90.319 123.988 88.8193 123.303 87.5292C122.618 86.2391 121.475 85.2516 120.099 84.7606C118.723 84.2696 117.214 84.3105 115.867 84.8753Z" fill="#60A5FA"/>
<path d="M17.1244 77.4507H4.01123V120.593H17.1244V77.4507Z" fill="#60A5FA"/>
</svg>
