<svg width="128" height="128" viewBox="0 0 128 128" fill="none" xmlns="http://www.w3.org/2000/svg">
<path d="M64.159 33.1555C65.0094 33.1546 65.8247 32.8163 66.4261 32.215C67.0274 31.6137 67.3657 30.7984 67.3667 29.948V23.4207C67.3667 22.5699 67.0287 21.754 66.4272 21.1524C65.8256 20.5509 65.0097 20.2129 64.1589 20.2129C63.3082 20.2129 62.4923 20.5509 61.8907 21.1524C61.2891 21.754 60.9512 22.5699 60.9512 23.4207V29.948C60.9522 30.7984 61.2905 31.6138 61.8918 32.2151C62.4932 32.8164 63.3086 33.1546 64.159 33.1555Z" fill="#60A5FA"/>
<path d="M104.579 60.9512H98.0519C97.2012 60.9512 96.3853 61.2891 95.7838 61.8907C95.1822 62.4923 94.8442 63.3081 94.8442 64.1589C94.8442 65.0096 95.1822 65.8255 95.7838 66.4271C96.3853 67.0286 97.2012 67.3666 98.0519 67.3666H104.579C105.43 67.3666 106.246 67.0286 106.847 66.4271C107.449 65.8255 107.787 65.0096 107.787 64.1589C107.787 63.3081 107.449 62.4923 106.847 61.8907C106.246 61.2891 105.43 60.9512 104.579 60.9512Z" fill="#60A5FA"/>
<path d="M63.8404 94.8447C62.99 94.8458 62.1747 95.1841 61.5733 95.7855C60.972 96.3869 60.6338 97.2022 60.6328 98.0527V104.579C60.6328 105.43 60.9708 106.246 61.5723 106.848C62.1738 107.449 62.9897 107.787 63.8404 107.787C64.6911 107.787 65.507 107.449 66.1085 106.848C66.7101 106.246 67.048 105.43 67.048 104.579V98.0527C67.047 97.2022 66.7088 96.3869 66.1075 95.7855C65.5062 95.1841 64.6909 94.8458 63.8404 94.8447Z" fill="#60A5FA"/>
<path d="M29.9476 60.6328H23.4203C22.5705 60.6343 21.7561 60.9729 21.1558 61.5743C20.5554 62.1757 20.2183 62.9907 20.2183 63.8405C20.2183 64.6902 20.5554 65.5052 21.1558 66.1066C21.7561 66.708 22.5705 67.0466 23.4203 67.0481H29.9476C30.7974 67.0466 31.6118 66.708 32.2121 66.1066C32.8124 65.5052 33.1496 64.6902 33.1496 63.8405C33.1496 62.9907 32.8124 62.1757 32.2121 61.5743C31.6118 60.9729 30.7974 60.6343 29.9476 60.6328Z" fill="#60A5FA"/>
<path d="M124.358 62.7854C124.02 46.967 117.523 31.9048 106.249 20.8036C94.975 9.70237 79.8143 3.43851 63.9925 3.34473C48.1699 3.44283 33.0101 9.71113 21.7386 20.8159C10.4671 31.9207 3.97366 46.9854 3.63982 62.8048C3.63429 63.2792 3.63061 63.7518 3.63429 64.2132C3.82773 97.5685 30.3111 124.117 63.9243 124.655H64.0754C97.6885 124.117 124.172 97.5685 124.365 64.2252C124.369 63.7453 124.365 63.2654 124.358 62.7854ZM63.9998 115.223C35.5949 114.731 13.2309 92.3151 13.067 64.146C13.0633 63.7388 13.067 63.3308 13.0725 62.942C13.274 49.5683 18.7282 36.8106 28.2569 27.4245C37.7857 18.0383 50.6241 12.7771 63.9994 12.7772C77.3746 12.7774 90.213 18.0388 99.7415 27.4251C109.27 36.8114 114.724 49.5692 114.925 62.9429C114.933 63.3445 114.936 63.7452 114.933 64.1579C114.769 92.3151 92.4048 114.731 63.9998 115.223Z" fill="#60A5FA"/>
<path d="M57.045 47.4225H70.955L72.469 50.1595H75.499L72.516 44.7715H55.483L52.5 50.1595H55.531L57.045 47.4225Z" fill="#60A5FA"/>
<path d="M83.4904 52.042H44.51C43.7674 52.0422 43.0553 52.3372 42.5303 52.8623C42.0052 53.3874 41.7101 54.0994 41.71 54.842V65.2494C41.7096 65.7798 41.86 66.2994 42.1435 66.7477C42.4271 67.196 42.8321 67.5545 43.3115 67.7816C43.3195 67.7842 43.3248 67.7895 43.3327 67.7921V79.3688C43.3335 80.392 43.7402 81.3731 44.4634 82.0969C45.1867 82.8206 46.1675 83.228 47.1906 83.2295H80.8071C81.8307 83.2285 82.812 82.8214 83.5358 82.0976C84.2596 81.3738 84.6667 80.3924 84.6676 79.3688V67.7921C84.6757 67.7895 84.681 67.7842 84.6889 67.7815C85.1683 67.5545 85.5734 67.196 85.8569 66.7477C86.1404 66.2994 86.2908 65.7798 86.2905 65.2494V54.842C86.2903 54.0994 85.9952 53.3873 85.4701 52.8623C84.945 52.3372 84.233 52.0422 83.4904 52.042ZM82.0162 79.3688C82.0159 79.6894 81.8884 79.9968 81.6617 80.2235C81.435 80.4502 81.1277 80.5776 80.8071 80.578H47.1907C46.8705 80.5771 46.5637 80.4493 46.3376 80.2227C46.1115 79.996 45.9844 79.689 45.9843 79.3688V68.4603C51.9144 69.6462 57.9517 70.2123 63.9989 70.1494C70.047 70.2124 76.0852 69.6464 82.0162 68.4603V79.3688Z" fill="#60A5FA"/>
</svg>
