<svg width="128" height="128" viewBox="0 0 128 128" fill="none" xmlns="http://www.w3.org/2000/svg">
<path d="M50.7615 42.78C51.0282 42.0366 51.7758 41.5788 52.5594 41.6813C53.3426 41.7831 53.9487 42.4169 54.0159 43.2038L56.7004 74.5665L61.7271 56.4478C61.9327 55.7069 62.6115 55.1981 63.3831 55.2174C64.1513 55.2343 64.8102 55.7707 64.983 56.5196L67.7822 68.6633L72.5616 48.5825C72.7482 47.7969 73.4691 47.2589 74.2747 47.2932C75.0812 47.3316 75.7469 47.9386 75.8592 48.7381L79.426 74.1669L81.0249 68.9987C81.2428 68.2953 81.8935 67.8159 82.6297 67.8159H120.456V59.1571C120.456 51.1639 113.976 44.6818 105.978 44.6818H82.9965V21.6996C82.9965 13.7027 76.5163 7.22314 68.52 7.22314H60.1585H58.8394C50.845 7.22314 44.3611 13.703 44.3611 21.6996V44.6815H21.3783C13.3879 44.6815 6.9043 51.1635 6.9043 59.1568V68.0004H41.7117L50.7615 42.78Z" fill="#60A5FA"/>
<path d="M80.4117 82.3451C80.1787 83.0964 79.4541 83.5869 78.6721 83.523C77.8877 83.4592 77.2524 82.861 77.1435 82.0815L73.7685 58.0206L69.39 76.4177C69.2098 77.1745 68.5334 77.7088 67.756 77.7088C67.7542 77.7088 67.752 77.7088 67.7499 77.7088C66.9697 77.7057 66.2943 77.1665 66.119 76.406L63.1958 63.7234L57.442 84.4624C57.2383 85.195 56.5717 85.6928 55.8244 85.6928C55.7725 85.6928 55.7203 85.6904 55.6678 85.6861C54.8579 85.6106 54.2187 84.9667 54.1496 84.1565L51.3252 51.1567L44.4755 70.2481C44.2361 70.9159 43.6036 71.3606 42.8944 71.3606H7.12793C8.32177 78.1526 14.248 83.3146 21.3788 83.3146H44.3616V106.297C44.3616 114.294 50.8455 120.777 58.84 120.777H60.159H68.5205C76.5168 120.777 82.997 114.294 82.997 106.297V83.3146H105.979C113.181 83.3146 119.149 78.059 120.267 71.1758H83.8683L80.4117 82.3451Z" fill="#60A5FA"/>
<path d="M126.321 67.816H120.457H82.6301C81.8938 67.816 81.2429 68.2956 81.0253 68.9987L79.4263 74.1669L75.8595 48.7381C75.7472 47.9387 75.0815 47.3316 74.275 47.2932C73.4694 47.2589 72.7485 47.7969 72.5619 48.5825L67.7825 68.6633L64.9833 56.5196C64.8105 55.7707 64.1516 55.2343 63.3834 55.2174C62.6119 55.1981 61.933 55.7072 61.7274 56.4478L56.7007 74.5665L54.0162 43.2038C53.949 42.4169 53.3429 41.7829 52.5597 41.6813C51.7759 41.5788 51.0286 42.0367 50.7619 42.78L41.7126 68.0007H6.90494H1.67997C0.752212 68.0007 0 68.7529 0 69.681C0 70.6084 0.751905 71.3606 1.67997 71.3606H7.12806H42.8939C43.6034 71.3606 44.2356 70.916 44.475 70.2481L51.3247 51.1568L54.1491 84.1565C54.2185 84.9667 54.8578 85.6106 55.6674 85.6861C55.7198 85.6904 55.772 85.6929 55.8239 85.6929C56.5715 85.6929 57.2378 85.1951 57.4415 84.4625L63.1953 63.7231L66.1185 76.4058C66.2938 77.1666 66.9693 77.7055 67.7494 77.7086C67.7515 77.7086 67.7537 77.7086 67.7555 77.7086C68.5329 77.7086 69.2093 77.1746 69.3895 76.4174L73.768 58.0206L77.143 82.0816C77.2519 82.8611 77.8875 83.4596 78.6717 83.5231C79.4536 83.5869 80.1782 83.0965 80.4112 82.3452L83.8678 71.1753H120.266H126.321C127.248 71.1753 128 70.4234 128 69.4956C128 68.5679 127.249 67.816 126.321 67.816Z" fill="white"/>
</svg>
