<svg width="140" height="140" viewBox="0 0 140 140" fill="none" xmlns="http://www.w3.org/2000/svg">
<path d="M129.062 58.625C130.375 57.75 131.25 56.4375 131.25 54.6875V43.75C131.25 38.9375 127.313 35 122.5 35H94.9375C93.1875 35 91.875 35.875 91 37.1875C89.25 39.8125 85.3125 39.8125 83.5625 37.1875C83.125 35.875 81.375 35 80.0625 35H17.5C12.6875 35 8.75 38.9375 8.75 43.75V55.125C8.75 56.875 9.625 58.1875 10.9375 59.0625C14.875 61.25 17.5 65.1875 17.5 70C17.5 74.8125 14.875 78.75 10.9375 81.375C9.625 82.25 8.75 83.5625 8.75 84.875V96.25C8.75 101.063 12.6875 105 17.5 105H80.0625C81.8125 105 83.125 104.125 84 102.812C85.75 100.187 89.6875 100.187 91.4375 102.812C92.3125 104.125 93.625 105 95.375 105H122.5C127.313 105 131.25 101.063 131.25 96.25V84.875C131.25 83.125 130.375 81.8125 129.062 80.9375C125.125 78.75 122.5 74.8125 122.5 70C122.5 65.1875 125.125 61.25 129.062 58.625ZM52.5 87.0625C52.5 89.6875 50.75 91.875 48.125 91.875C45.5 91.875 43.75 90.125 43.75 87.5C41.125 87.5 39.375 85.75 39.375 83.125C39.375 80.5 41.125 78.75 43.75 78.75H50.3125C51.625 78.75 52.5 77.875 52.5 76.5625C52.5 75.25 51.625 74.375 50.3125 74.375H45.9375C39.8125 74.375 35 69.5625 35 63.4375C35 58.1875 38.9375 53.8125 43.75 52.9375V52.5C43.75 49.875 45.5 48.125 48.125 48.125C50.75 48.125 52.5 49.875 52.5 52.5C55.125 52.5 56.875 54.25 56.875 56.875C56.875 59.5 55.125 61.25 52.5 61.25H45.9375C44.625 61.25 43.75 62.125 43.75 63.4375C43.75 64.75 44.625 65.625 45.9375 65.625H50.3125C56.4375 65.625 61.25 70.4375 61.25 76.5625C61.25 81.8125 57.3125 86.1875 52.5 87.0625ZM91.875 83.125C91.875 85.75 90.125 87.5 87.5 87.5C84.875 87.5 83.125 85.75 83.125 83.125V78.75C83.125 76.125 84.875 74.375 87.5 74.375C90.125 74.375 91.875 76.125 91.875 78.75V83.125ZM91.875 61.25C91.875 63.875 90.125 65.625 87.5 65.625C84.875 65.625 83.125 63.875 83.125 61.25V56.875C83.125 54.25 84.875 52.5 87.5 52.5C90.125 52.5 91.875 54.25 91.875 56.875V61.25Z" fill="#60A5FA"/>
</svg>
