<svg width="128" height="128" viewBox="0 0 128 128" fill="none" xmlns="http://www.w3.org/2000/svg">
<path d="M79.7181 38.1161L68.9855 37.338L64.9331 27.3538C64.8556 27.1617 64.7216 26.9977 64.5487 26.8834C64.3759 26.7692 64.1725 26.7101 63.9654 26.7141C63.7638 26.7125 63.5665 26.7724 63.3998 26.8858C63.2331 26.9992 63.105 27.1607 63.0324 27.3488L58.9779 37.338L48.2414 38.1165C48.0385 38.1266 47.8435 38.1985 47.6828 38.3228C47.522 38.447 47.4031 38.6174 47.3422 38.8112C47.2756 39.0059 47.2704 39.2163 47.327 39.4141C47.3837 39.6119 47.4996 39.7875 47.6592 39.9174L55.8971 46.8674L53.3212 57.3333C53.2682 57.5342 53.2778 57.7465 53.3488 57.9417C53.4198 58.1369 53.5488 58.3058 53.7185 58.4257C53.8815 58.5464 54.0775 58.6145 54.2802 58.6209C54.4829 58.6273 54.6828 58.5717 54.8531 58.4615L64.0083 52.7697L73.1604 58.4867C73.335 58.5897 73.536 58.6391 73.7384 58.6288C73.9408 58.6185 74.1358 58.549 74.299 58.4288C74.4622 58.3087 74.5866 58.1432 74.6566 57.953C74.7265 57.7628 74.7391 57.5562 74.6926 57.3589L72.1163 46.8926L80.3549 39.9423C80.5106 39.8104 80.6228 39.6347 80.6769 39.438C80.731 39.2413 80.7244 39.0329 80.6581 38.84C80.5932 38.6383 80.4685 38.4611 80.3007 38.3319C80.1328 38.2026 79.9296 38.1274 79.7181 38.1161Z" fill="#60A5FA"/>
<path d="M87.8179 78.7898L83.8038 83.0779C82.5958 84.3706 81.0912 85.3499 79.42 85.9313C77.7489 86.5126 75.9614 86.6784 74.2118 86.4145L68.4032 85.5497L62.8613 87.4811C61.191 88.0663 59.4033 88.2356 57.6528 87.9744C55.9024 87.7133 54.2419 87.0294 52.8152 85.9821L48.0732 82.5157L42.2647 81.6509C40.8795 81.4524 39.5471 80.9822 38.3442 80.2672V124.977L62.5298 108.733C62.9643 108.441 63.4762 108.285 63.9999 108.285C64.5237 108.285 65.0356 108.441 65.4701 108.733L89.6556 124.977V78.1484L87.8179 78.7898Z" fill="#60A5FA"/>
<path d="M102.307 32.0755L97.6212 26.4865L96.0692 19.3599C95.8913 18.5431 95.5177 17.7817 94.9806 17.1411C94.4435 16.5005 93.7589 16 92.9857 15.6823L86.2389 12.9113L81.5527 7.32222C81.0156 6.68166 80.3309 6.18108 79.5577 5.86349C78.7844 5.54591 77.9456 5.42081 77.1133 5.49895L69.8516 6.18064L63.1048 3.40964C62.3315 3.09204 61.4927 2.96693 60.6604 3.04507C59.8281 3.1232 59.0273 3.40224 58.3266 3.85821L52.2134 7.8365L44.9517 8.51824C44.1194 8.59638 43.3186 8.87542 42.6179 9.33138C41.9173 9.78735 41.3378 10.4066 40.9293 11.136L37.3652 17.4996L31.2521 21.4779C30.5514 21.9338 29.972 22.5531 29.5635 23.2824C29.155 24.0118 28.9297 24.8294 28.9069 25.6651L28.7084 32.9561L25.1443 39.3196C24.7358 40.049 24.5105 40.8666 24.4878 41.7022C24.465 42.5379 24.6455 43.3665 25.0137 44.117L28.2262 50.6652L28.0276 57.9561C28.0049 58.7918 28.1853 59.6204 28.5535 60.3709C28.9217 61.1214 29.4666 61.7713 30.1414 62.2648L36.029 66.5699L39.2414 73.118C39.6096 73.8684 40.1545 74.5183 40.8293 75.0117C41.5041 75.5052 42.2886 75.8274 43.1154 75.9507L50.3293 77.0266L56.2169 81.3318C56.8916 81.8252 57.6761 82.1474 58.5029 82.2708C59.3298 82.3941 60.1741 82.3148 60.9636 82.0398L67.8511 79.64L75.065 80.7159C75.8918 80.8392 76.7362 80.7599 77.5256 80.4849C78.315 80.2098 79.0259 79.7472 79.597 79.1368L84.5804 73.8111L91.468 71.4114C92.2574 71.1363 92.9682 70.6737 93.5394 70.0633C94.1106 69.453 94.525 68.713 94.7471 67.9071L96.6847 60.8755L101.668 55.5498C102.239 54.9394 102.654 54.1994 102.876 53.3935C103.098 52.5876 103.121 51.7398 102.943 50.923L101.391 43.7964L103.329 36.7648C103.551 35.9589 103.574 35.1111 103.396 34.2943C103.218 33.4775 102.844 32.7161 102.307 32.0755ZM64 66.3099C59.3254 66.3099 54.7558 64.9237 50.8691 62.3267C46.9823 59.7296 43.9529 56.0384 42.164 51.7196C40.3751 47.4009 39.9071 42.6486 40.819 38.0639C41.731 33.4791 43.982 29.2677 47.2875 25.9623C50.5929 22.6569 54.8042 20.4059 59.389 19.4939C63.9738 18.5819 68.726 19.05 73.0447 20.8389C77.3635 22.6278 81.0548 25.6572 83.6518 29.5439C86.2489 33.4307 87.635 38.0003 87.635 42.6749C87.635 45.7787 87.0237 48.8521 85.8359 51.7196C84.6481 54.5871 82.9072 57.1927 80.7125 59.3874C78.5178 61.5821 75.9123 63.323 73.0447 64.5108C70.1772 65.6986 67.1038 66.3099 64 66.3099Z" fill="#60A5FA"/>
</svg>
