<svg width="128" height="128" viewBox="0 0 128 128" fill="none" xmlns="http://www.w3.org/2000/svg">
<path d="M25.6001 38.4005C30.312 38.4005 34.3336 36.7345 37.6662 33.401C40.9999 30.0677 42.6669 26.0449 42.6669 21.3339C42.6669 16.6234 40.9999 12.6006 37.6662 9.26687C34.3336 5.93359 30.3117 4.2666 25.6001 4.2666C20.8886 4.2666 16.8668 5.93359 13.5335 9.26687C10.2004 12.6006 8.53345 16.6225 8.53345 21.3339C8.53345 26.0458 10.2004 30.0677 13.5335 33.401C16.8668 36.7336 20.8886 38.4005 25.6001 38.4005Z" fill="#60A5FA"/>
<path d="M45.8998 65.0358C50.8999 70.0342 56.9325 72.5345 64.0002 72.5345C71.0681 72.5345 77.1005 70.0342 82.1003 65.0358C87.0994 60.0341 89.5998 54.0008 89.5998 46.9345C89.5998 39.8677 87.0994 33.8347 82.1003 28.8344C77.1005 23.8341 71.0681 21.334 64.0002 21.334C56.9325 21.334 50.8994 23.8346 45.8998 28.8344C40.9003 33.834 38.3997 39.867 38.3997 46.9345C38.3997 54.002 40.9003 60.0348 45.8998 65.0358Z" fill="#60A5FA"/>
<path d="M102.402 38.4005C107.112 38.4005 111.134 36.7345 114.467 33.401C117.8 30.0677 119.466 26.0449 119.466 21.3339C119.466 16.6234 117.8 12.6006 114.467 9.26687C111.134 5.93359 107.112 4.2666 102.402 4.2666C97.6887 4.2666 93.6671 5.93359 90.3338 9.26687C87.0015 12.6006 85.3347 16.6225 85.3347 21.3339C85.3347 26.0458 87.0017 30.0677 90.3338 33.401C93.6671 36.7336 97.6887 38.4005 102.402 38.4005Z" fill="#60A5FA"/>
<path d="M119.733 38.4014C119.467 38.4014 118.501 38.8681 116.834 39.8015C115.168 40.7352 113 41.6798 110.334 42.6355C107.669 43.5903 105.023 44.0683 102.402 44.0683C99.4228 44.0683 96.4694 43.5576 93.535 42.5349C93.7556 44.1785 93.8675 45.6456 93.8675 46.9346C93.8675 53.1124 92.0672 58.801 88.4656 64.0012C95.6671 64.2242 101.555 67.068 106.134 72.5362H115.067C118.711 72.5362 121.778 71.6342 124.267 69.8346C126.755 68.0359 128 65.4013 128 61.9351C128.001 46.245 125.246 38.4004 119.733 38.4014Z" fill="#60A5FA"/>
<path d="M109.77 92.301C109.303 89.7007 108.713 87.2891 108.002 85.0675C107.291 82.8443 106.335 80.679 105.137 78.5677C103.936 76.4582 102.558 74.657 101.002 73.1674C99.4455 71.6779 97.5452 70.4905 95.3015 69.6004C93.0577 68.7117 90.5788 68.2676 87.8683 68.2676C87.4232 68.2676 86.4682 68.7456 85.0013 69.7013C83.5342 70.6561 81.9135 71.7246 80.1349 72.9008C78.3567 74.0769 75.981 75.1445 73.0013 76.1003C70.0213 77.056 67.0217 77.534 64.0011 77.534C60.9793 77.534 57.9788 77.056 55.0009 76.1003C52.0223 75.1445 49.6452 74.0769 47.8673 72.9008C46.089 71.7246 44.4673 70.6561 43.0009 69.7013C41.5337 68.7456 40.5787 68.2676 40.1336 68.2676C37.4229 68.2676 34.9452 68.7117 32.7005 69.6004C30.4558 70.4905 28.556 71.6779 27.0006 73.1674C25.4439 74.6553 24.0674 76.4582 22.8665 78.5677C21.6669 80.679 20.7114 82.8443 20.0002 85.0675C19.2892 87.2891 18.701 89.7007 18.2335 92.301C17.7665 94.9013 17.4557 97.3226 17.3002 99.5679C17.1444 101.813 17.0669 104.113 17.0669 106.469C17.0669 111.801 18.6886 116.013 21.9329 119.101C25.1784 122.189 29.4898 123.734 34.8665 123.734H93.1341C98.5112 123.734 102.822 122.189 106.068 119.101C109.313 116.013 110.935 111.801 110.935 106.469C110.935 104.113 110.857 101.813 110.703 99.5679C110.545 97.3226 110.235 94.9011 109.77 92.301Z" fill="#60A5FA"/>
<path d="M39.533 64.0012C35.9329 58.801 34.1332 53.1124 34.1339 46.9346C34.1339 45.6456 34.2453 44.1794 34.4672 42.5349C31.5334 43.5569 28.5779 44.0683 25.6 44.0683C22.9778 44.0683 20.3341 43.5905 17.667 42.6355C15.001 41.6798 12.8336 40.7352 11.1676 39.8015C9.50084 38.8681 8.53343 38.4014 8.267 38.4014C2.75559 38.4016 0 46.2462 0 61.9351C0 65.4013 1.24458 68.0359 3.73304 69.8346C6.2222 71.6342 9.28905 72.5346 12.9324 72.5346H21.8663C26.4446 67.068 32.3327 64.2239 39.533 64.0012Z" fill="#60A5FA"/>
</svg>
