<svg width="128" height="128" viewBox="0 0 128 128" fill="none" xmlns="http://www.w3.org/2000/svg">
<path d="M116 76H98.0001C96.8001 76 96.0001 75.6 95.2001 74.8L64.0001 42L32.8001 74.8C32.0001 75.6 31.2001 76 30.0001 76H12.0001C10.4001 76 8.80009 75.2 8.40009 73.6C7.60009 72 8.00009 70.4 9.20009 69.2L61.2001 13.2C62.8001 11.6 65.6001 11.6 67.2001 13.2L119.2 69.2C120.4 70.4 120.4 72 120 73.6C119.2 75.2 117.6 76 116 76Z" fill="#60A5FA"/>
<path d="M98 84.0001C94.8 84.0001 91.6 82.8001 89.2 80.4001L64 53.6001L38.8 80.4001C36.4 82.8001 33.2 84.0001 30 84.0001H24V112C24 114.4 25.6 116 28 116H100C102.4 116 104 114.4 104 112V84.0001H98Z" fill="#60A5FA"/>
</svg>
