<svg width="200" height="200" viewBox="0 0 200 200" fill="none" xmlns="http://www.w3.org/2000/svg">
<g clip-path="url(#clip0_506_3223)">
<path d="M200.2 0H0C11.4 10.52 28.28 22.48 49.88 27.6C92.44 37.64 122.24 68 142.76 145.76C150.68 175.88 165.56 191.6 180.8 199.6H200.2V0Z" fill="#0D1458"/>
<path d="M155 84.9601C165.847 84.9601 174.64 76.1669 174.64 65.3201C174.64 54.4732 165.847 45.6801 155 45.6801C144.153 45.6801 135.36 54.4732 135.36 65.3201C135.36 76.1669 144.153 84.9601 155 84.9601Z" fill="#3075FF"/>
<path d="M139.32 166.08H58.1202C54.2002 166.08 50.9602 162.88 50.9602 158.96V52.92C50.9602 49.4 54.1602 46.48 58.1202 46.48H139.32C143.24 46.48 146.48 49.36 146.48 52.92V158.96C146.48 162.88 143.24 166.08 139.32 166.08Z" fill="#4D85FF"/>
<path d="M140.04 57.92H56.8801V161.2H140.04V57.92Z" fill="white"/>
<path d="M115.84 63.4001H81.8C78.36 63.4001 75.52 60.5601 75.52 57.1201C75.52 53.6801 78.36 50.8401 81.8 50.8401H115.84C119.28 50.8401 122.12 53.6801 122.12 57.1201C122.12 60.6001 119.32 63.4001 115.84 63.4001Z" fill="#A1BFFF"/>
<path d="M165.646 74.5751C173.316 66.9052 173.316 54.47 165.646 46.8002C157.976 39.1304 145.541 39.1304 137.871 46.8002C130.201 54.47 130.201 66.9052 137.871 74.5751C145.541 82.2449 157.976 82.2449 165.646 74.5751Z" fill="#E38B29"/>
<path d="M151.76 71.4401C150 71.4401 148.56 70.0001 148.56 68.2401V53.1601C148.56 51.4001 150 49.9601 151.76 49.9601C153.52 49.9601 154.96 51.4001 154.96 53.1601V68.2401C155 69.9601 153.56 71.4401 151.76 71.4401Z" fill="#F0F5FF"/>
<path d="M141.04 60.68C141.04 58.92 142.48 57.48 144.24 57.48H159.32C161.08 57.48 162.52 58.92 162.52 60.68C162.52 62.44 161.08 63.88 159.32 63.88H144.24C142.48 63.88 141.04 62.44 141.04 60.68Z" fill="#F0F5FF"/>
<path d="M119.2 138.68H70.68C69.2 138.68 68 137.48 68 136V121.16C68 119.68 69.2 118.48 70.68 118.48H119.2C120.68 118.48 121.88 119.68 121.88 121.16V136C121.88 137.44 120.64 138.68 119.2 138.68Z" fill="#A1BFFF"/>
<path d="M126.48 111.6H70.4801C68.2401 111.6 66.4001 109.76 66.4001 107.52V76.5201C66.4001 74.2801 68.2401 72.4401 70.4801 72.4401H126.48C128.72 72.4401 130.56 74.2801 130.56 76.5201V107.52C130.56 109.76 128.72 111.6 126.48 111.6Z" fill="#A1BFFF"/>
<path d="M81.4002 103.2C87.1881 103.2 91.8802 98.508 91.8802 92.72C91.8802 86.9321 87.1881 82.2401 81.4002 82.2401C75.6122 82.2401 70.9202 86.9321 70.9202 92.72C70.9202 98.508 75.6122 103.2 81.4002 103.2Z" fill="white"/>
<path d="M84.9601 122.04C83.4801 122.48 82.4802 123.56 81.8002 124.52C81.6002 124.8 81.1601 124.8 80.9601 124.52C80.2401 123.52 79.2001 122.28 77.7601 122.04C75.0401 121.52 73.0802 123.96 73.9202 126.68C74.8002 130.04 81.4402 135.24 81.4402 135.24H81.6002C81.6002 135.24 88.1202 130.08 88.9202 126.72C89.6802 124 87.9601 121.16 84.9601 122.04Z" fill="white"/>
<path d="M82.2802 131.36C82.0402 131.36 81.8002 131.2 81.7202 130.96L80.5202 127.72L79.9602 129.28C79.8802 129.52 79.6802 129.64 79.4402 129.64H77.4002C77.2402 129.64 77.1602 129.52 77.1602 129.36C77.1602 129 77.5602 128.56 77.9202 128.6H79.1202L80.0402 126.2C80.1202 125.96 80.3202 125.84 80.5602 125.84C80.8002 125.84 81.0002 126 81.0802 126.24L82.2802 129.56L82.7602 128.44C82.8402 128.24 83.0402 128.08 83.2802 128.08H85.4802C85.6402 128.08 85.7202 128.2 85.7202 128.36C85.7202 128.72 85.3202 129.16 84.9602 129.12H83.5602L82.7602 131.04C82.7202 131.24 82.5202 131.36 82.2802 131.36Z" fill="#3071FF"/>
<path d="M91.8801 128.88C91.8801 127.8 92.7601 126.92 93.8401 126.92H116.28C117.36 126.92 118.24 127.8 118.24 128.88C118.24 129.96 117.36 130.84 116.28 130.84H93.8401C92.7601 130.84 91.8801 129.96 91.8801 128.88Z" fill="white"/>
<path d="M94.5601 97.2C94.5601 96.12 95.4401 95.2401 96.5201 95.2401H118.96C120.04 95.2401 120.92 96.12 120.92 97.2C120.92 98.28 120.04 99.16 118.96 99.16H96.5201C95.4401 99.16 94.5601 98.28 94.5601 97.2Z" fill="white"/>
<path d="M94.5601 88.6C94.5601 87.52 95.4401 86.64 96.5201 86.64H124.92C126 86.64 126.88 87.52 126.88 88.6C126.88 89.68 126 90.56 124.92 90.56H96.5201C95.4401 90.56 94.5601 89.68 94.5601 88.6Z" fill="white"/>
<path d="M86.1601 96.44C86.0001 95.08 85.0801 94.12 84.4001 93.8C84.1201 93.68 83.8401 93.6 83.5601 93.48C83.4001 93.4 83.2401 93.36 83.0801 93.28C82.9601 93.24 82.8401 93.2 82.7201 93.16H82.6801L82.4801 93.08C82.4001 93.04 82.3601 92.96 82.2801 92.92L82.2001 92.84C82.2001 92.8 82.2001 92.76 82.2001 92.76C82.2001 92.48 82.2001 92.24 82.2401 91.96C82.4001 91.84 82.5201 91.64 82.6001 91.44C82.6801 91.28 82.7201 91.12 82.7201 91C83.1201 90.96 83.2801 90.44 83.3201 90.08C83.3601 89.8 83.4401 89.08 83.0001 89.08C83.0001 89.04 83.0001 89 83.0401 88.96C83.1201 88.72 83.1601 88.48 83.1601 88.24C83.1601 88 83.1201 87.76 83.0001 87.56C82.9601 87.48 82.9201 87.44 82.8401 87.4C82.8801 87.36 82.8801 87.28 82.8801 87.2C82.8801 86.6 82.3201 86.32 81.9201 86.16C81.5601 86.04 81.2001 85.96 80.8401 85.96C80.4801 85.96 80.1201 86.04 79.7601 86.16C79.3601 86.32 78.8001 86.6 78.8001 87.2C78.8001 87.28 78.8001 87.36 78.8401 87.4C78.7601 87.4 78.7201 87.48 78.6801 87.56C78.5601 87.76 78.5201 88 78.5201 88.24C78.5201 88.48 78.5601 88.72 78.6401 88.96C78.6401 89 78.6401 89.04 78.6801 89.08C78.2401 89.08 78.3201 89.8 78.3601 90.08C78.4001 90.44 78.5601 90.96 78.9601 91C79.0001 91.16 79.0401 91.32 79.0801 91.44C79.1601 91.64 79.3201 91.8 79.4401 91.96C79.4401 92.24 79.4401 92.48 79.4801 92.76C79.4801 92.8 79.4801 92.84 79.4801 92.84L79.4001 92.92C79.3201 92.96 79.2801 93.04 79.2001 93.08L79.0001 93.16H78.9601C78.8401 93.2 78.7201 93.24 78.6001 93.28C78.4401 93.36 78.2801 93.4 78.1201 93.48C77.8401 93.6 77.5601 93.68 77.2801 93.8C76.6001 94.12 75.6801 95.08 75.5201 96.44C75.4401 97.08 75.8001 97.48 76.4401 97.52L80.8401 97.56L85.2401 97.52C85.8801 97.52 86.2401 97.08 86.1601 96.44Z" fill="#3071FF"/>
<path d="M116.6 57.6801H82.1201C81.4401 57.6801 80.8801 57.1201 80.8801 56.4401C80.8801 55.7601 81.4401 55.2001 82.1201 55.2001H116.6C117.28 55.2001 117.84 55.7601 117.84 56.4401C117.84 57.1201 117.28 57.6801 116.6 57.6801Z" fill="#F0F5FF"/>
<path d="M26.2801 109.2C25.3601 108.32 25.0801 107.08 25.6801 106.44L27.3601 104.68C27.9601 104.04 29.2401 104.24 30.1601 105.16L31.4401 106.4L34.4001 109.28L54.4001 128.52L55.6801 129.76L56.2401 130.32C56.6001 130.68 56.8801 131.04 57.1201 131.48L60.1601 136.92C60.6801 137.84 60.0001 138.56 59.0801 138.08L53.5201 135.24C53.1201 135.04 52.7201 134.72 52.3601 134.4L51.8001 133.84L50.5201 132.6L30.5201 113.36L26.2801 109.2Z" fill="#E38B29"/>
<path d="M168.4 126.92H146.16C143.96 126.92 142.2 125.16 142.2 122.96V100.72C142.2 98.52 143.96 96.76 146.16 96.76H168.4C170.6 96.76 172.36 98.52 172.36 100.72V122.96C172.36 125.16 170.6 126.92 168.4 126.92Z" fill="#3075FF"/>
<path d="M162.16 121.96H139.92C137.72 121.96 135.96 120.2 135.96 118V95.76C135.96 93.56 137.72 91.8 139.92 91.8H162.16C164.36 91.8 166.12 93.56 166.12 95.76V118C166.12 120.2 164.36 121.96 162.16 121.96Z" fill="#A1BFFF"/>
<path d="M156.88 99.8C154.56 97.76 151.04 97.96 149 100.28C146.96 102.6 147.16 106.12 149.48 108.16C151.8 110.2 155.32 110 157.36 107.68C159.4 105.36 159.2 101.84 156.88 99.8ZM156.24 106.72C154.76 108.4 152.16 108.56 150.48 107.08C148.8 105.6 148.64 103 150.12 101.32C151.6 99.64 154.2 99.48 155.88 100.96C157.6 102.44 157.76 105.04 156.24 106.72Z" fill="#3071FF"/>
<path d="M144.16 114.52C143.8 114.2 143.76 113.64 144.12 113.28L147.76 109.28C148.08 108.92 148.64 108.88 149 109.24C149.36 109.56 149.4 110.12 149.04 110.48L145.4 114.48C145.08 114.8 144.52 114.84 144.16 114.52Z" fill="#3071FF"/>
</g>
<defs>
<clipPath id="clip0_506_3223">
<rect width="200" height="200" fill="white"/>
</clipPath>
</defs>
</svg>
