<svg width="200" height="200" viewBox="0 0 200 200" fill="none" xmlns="http://www.w3.org/2000/svg">
<g clip-path="url(#clip0_506_2697)">
<path d="M0.76001 22.92V171.96C0.76001 171.96 45.44 185.48 105 163.92C133.04 153.76 134.88 106 107.68 92.96C77.6 78.52 31.68 71.08 0.76001 4.40002V22.92Z" fill="#0D1458"/>
<path opacity="0.33" d="M0.76001 89.28V171.92C0.76001 171.92 45.44 185.44 105 163.88C108.48 162.64 111.52 160.8 114.2 158.52C58.64 160.32 21.08 119.84 0.76001 89.28Z" fill="#2555C4"/>
<path d="M131.52 179.88C143.96 179.56 178.8 175.56 185.2 140.96V101C185.2 93.88 178.6 88.32 171.64 89.92C167.16 90.96 163.04 94.8 161.88 105C156.4 154.88 110.16 163.12 121.88 175.92C124.36 178.6 127.88 180 131.52 179.88Z" fill="#0D1458"/>
<path d="M36.64 102.28C37.48 102.28 37.48 101 36.64 101C35.8 100.96 35.8 102.28 36.64 102.28Z" fill="#D6E3FF"/>
<path d="M116.84 47.04L97.7202 70.2" stroke="#BFD3FF" stroke-width="1.0825" stroke-miterlimit="10"/>
<path d="M125.28 46.4L98.7202 78.52" stroke="#BFD3FF" stroke-width="1.0825" stroke-miterlimit="10"/>
<path d="M131.68 47.84L101.24 84.72" stroke="#BFD3FF" stroke-width="1.0825" stroke-miterlimit="10"/>
<path d="M147.76 72.56L128.6 95.72" stroke="#BFD3FF" stroke-width="1.0825" stroke-miterlimit="10"/>
<path d="M144.8 84.52L138.76 91.84" stroke="#BFD3FF" stroke-width="1.0825" stroke-miterlimit="10"/>
<path d="M105.96 52.48L99.9202 59.76" stroke="#BFD3FF" stroke-width="1.0825" stroke-miterlimit="10"/>
<path d="M146.76 64.16L120.24 96.28" stroke="#BFD3FF" stroke-width="1.0825" stroke-miterlimit="10"/>
<path d="M144.12 58.16L113.72 95" stroke="#BFD3FF" stroke-width="1.0825" stroke-miterlimit="10"/>
<path d="M137.12 50.68L105.12 89.44" stroke="#BFD3FF" stroke-width="1.0825" stroke-miterlimit="10"/>
<path d="M141.04 53.92L109.04 92.68" stroke="#BFD3FF" stroke-width="1.0825" stroke-miterlimit="10"/>
<path d="M45.5201 120.4L26.4001 143.56" stroke="#BFD3FF" stroke-width="1.0825" stroke-miterlimit="10"/>
<path d="M53.9601 119.76L27.4001 151.88" stroke="#BFD3FF" stroke-width="1.0825" stroke-miterlimit="10"/>
<path d="M60.3602 121.2L29.9202 158.04" stroke="#BFD3FF" stroke-width="1.0825" stroke-miterlimit="10"/>
<path d="M76.44 145.92L57.28 169.08" stroke="#BFD3FF" stroke-width="1.0825" stroke-miterlimit="10"/>
<path d="M73.4802 157.88L67.4402 165.2" stroke="#BFD3FF" stroke-width="1.0825" stroke-miterlimit="10"/>
<path d="M34.6401 125.84L28.6001 133.12" stroke="#BFD3FF" stroke-width="1.0825" stroke-miterlimit="10"/>
<path d="M75.4402 137.52L48.9202 169.64" stroke="#BFD3FF" stroke-width="1.0825" stroke-miterlimit="10"/>
<path d="M72.8001 131.52L42.4001 168.36" stroke="#BFD3FF" stroke-width="1.0825" stroke-miterlimit="10"/>
<path d="M65.8 124.04L33.8 162.8" stroke="#BFD3FF" stroke-width="1.0825" stroke-miterlimit="10"/>
<path d="M69.7202 127.28L37.7202 166.04" stroke="#BFD3FF" stroke-width="1.0825" stroke-miterlimit="10"/>
<path d="M45.5201 120.4L26.4001 143.56" stroke="#BFD3FF" stroke-width="1.0825" stroke-miterlimit="10"/>
<path d="M53.9601 119.76L27.4001 151.88" stroke="#BFD3FF" stroke-width="1.0825" stroke-miterlimit="10"/>
<path d="M60.3602 121.2L29.9202 158.04" stroke="#BFD3FF" stroke-width="1.0825" stroke-miterlimit="10"/>
<path d="M76.44 145.92L57.28 169.08" stroke="#BFD3FF" stroke-width="1.0825" stroke-miterlimit="10"/>
<path d="M73.4802 157.88L67.4402 165.2" stroke="#BFD3FF" stroke-width="1.0825" stroke-miterlimit="10"/>
<path d="M34.6401 125.84L28.6001 133.12" stroke="#BFD3FF" stroke-width="1.0825" stroke-miterlimit="10"/>
<path d="M75.4402 137.52L48.9202 169.64" stroke="#BFD3FF" stroke-width="1.0825" stroke-miterlimit="10"/>
<path d="M72.8001 131.52L42.4001 168.36" stroke="#BFD3FF" stroke-width="1.0825" stroke-miterlimit="10"/>
<path d="M65.8 124.04L33.8 162.8" stroke="#BFD3FF" stroke-width="1.0825" stroke-miterlimit="10"/>
<path d="M69.7202 127.28L37.7202 166.04" stroke="#BFD3FF" stroke-width="1.0825" stroke-miterlimit="10"/>
<path fill-rule="evenodd" clip-rule="evenodd" d="M77.8 42.48C77.8 42.48 86.84 42.68 90.12 47.2C93.4 51.72 91.36 50.72 94.28 61.64C96.6 70.32 84.52 69.36 84 69.16C83.48 69 77.8 42.48 77.8 42.48Z" fill="#142585"/>
<path fill-rule="evenodd" clip-rule="evenodd" d="M49.64 120.16L47.32 130C46.44 133.84 47.04 137.84 49.08 141.24L59.8 159.12L66.44 149.88L56.44 135.08L66.24 122.24L49.64 120.16Z" fill="#F5B8B0"/>
<path d="M175.88 75.12H137.4C135.88 75.12 134.6 73.88 134.6 72.32V51C134.6 49.48 135.84 48.2 137.4 48.2H175.88C177.4 48.2 178.68 49.44 178.68 51V72.32C178.68 73.84 177.44 75.12 175.88 75.12Z" fill="#E6EDFF"/>
<path d="M168.96 99.28H136.44C135.4 99.28 134.56 98.44 134.56 97.4V86.36C134.56 85.32 135.4 84.48 136.44 84.48H168.96C170 84.48 170.84 85.32 170.84 86.36V97.4C170.84 98.44 170 99.28 168.96 99.28Z" fill="#E6EDFF"/>
<path d="M164.48 95.24H124.08C122.84 95.24 121.84 94.24 121.84 93V80.64C121.84 79.4 122.84 78.4 124.08 78.4H164.48C165.72 78.4 166.72 79.4 166.72 80.64V93C166.72 94.24 165.72 95.24 164.48 95.24Z" fill="#A1BFFF"/>
<path d="M170.56 72.72H123.92C122.04 72.72 120.52 71.2 120.52 69.32V43.52C120.52 41.64 122.04 40.12 123.92 40.12H170.52C172.4 40.12 173.92 41.64 173.92 43.52V69.32C173.92 71.2 172.4 72.72 170.56 72.72Z" fill="#A1BFFF"/>
<path d="M140.853 60.8703C142.998 56.5586 141.242 51.3244 136.93 49.1794C132.618 47.0344 127.384 48.7908 125.239 53.1025C123.094 57.4142 124.851 62.6484 129.162 64.7934C133.474 66.9384 138.708 65.182 140.853 60.8703Z" fill="white"/>
<path d="M136 81.4C134.76 81.76 133.96 82.68 133.36 83.44C133.2 83.68 132.84 83.68 132.64 83.44C132.04 82.6 131.16 81.6 129.96 81.36C127.68 80.92 126.08 82.96 126.76 85.24C127.48 88.04 133 92.4 133 92.4H133.12C133.12 92.4 138.56 88.12 139.24 85.32C139.92 83.04 138.48 80.64 136 81.4Z" fill="white"/>
<path d="M133.76 89.16C133.56 89.16 133.36 89.04 133.32 88.84L132.32 86.12L131.84 87.4C131.76 87.6 131.6 87.72 131.4 87.72H129.68C129.56 87.72 129.48 87.64 129.48 87.52C129.48 87.24 129.84 86.88 130.12 86.88H131.12L131.88 84.88C131.96 84.68 132.12 84.56 132.32 84.56C132.52 84.56 132.68 84.68 132.76 84.88L133.76 87.64L134.16 86.72C134.24 86.56 134.4 86.44 134.6 86.44H136.44C136.56 86.44 136.64 86.52 136.64 86.64C136.64 86.92 136.28 87.28 136 87.28H134.84L134.16 88.88C134.12 89.04 133.96 89.16 133.76 89.16Z" fill="#3071FF"/>
<path d="M115.84 51.84C122.644 51.84 128.16 46.3242 128.16 39.52C128.16 32.7159 122.644 27.2 115.84 27.2C109.036 27.2 103.52 32.7159 103.52 39.52C103.52 46.3242 109.036 51.84 115.84 51.84Z" fill="#E38B29"/>
<path d="M115.84 46.56C114.48 46.56 113.32 45.44 113.32 44.04V35C113.32 33.64 114.44 32.48 115.84 32.48C117.2 32.48 118.36 33.6 118.36 35V44.08C118.36 45.44 117.24 46.56 115.84 46.56Z" fill="white"/>
<path d="M141.76 87.08C141.76 86.2 142.48 85.44 143.4 85.44H162.08C162.96 85.44 163.72 86.16 163.72 87.08C163.72 87.96 163 88.72 162.08 88.72H143.4C142.48 88.72 141.76 88 141.76 87.08Z" fill="white"/>
<path d="M144 60.72C144 59.84 144.72 59.08 145.64 59.08H164.32C165.2 59.08 165.96 59.8 165.96 60.72C165.96 61.6 165.24 62.36 164.32 62.36H145.64C144.72 62.36 144 61.6 144 60.72Z" fill="white"/>
<path d="M144 53.56C144 52.68 144.72 51.92 145.64 51.92H169.28C170.16 51.92 170.92 52.64 170.92 53.56C170.92 54.44 170.2 55.2 169.28 55.2H145.6C144.72 55.2 144 54.48 144 53.56Z" fill="white"/>
<path d="M108.8 39.52C108.8 38.16 109.92 37 111.32 37H120.4C121.76 37 122.92 38.12 122.92 39.52C122.92 40.88 121.8 42.04 120.4 42.04H111.32C109.96 42.04 108.8 40.92 108.8 39.52Z" fill="white"/>
<path d="M137 60.08C136.88 58.96 136.12 58.16 135.56 57.88C135.32 57.76 135.08 57.72 134.88 57.6C134.76 57.56 134.64 57.48 134.48 57.44C134.36 57.4 134.28 57.36 134.16 57.32H134.12L133.96 57.28C133.92 57.24 133.84 57.2 133.8 57.16L133.72 57.08C133.72 57.04 133.72 57.04 133.72 57C133.72 56.8 133.72 56.56 133.76 56.36C133.88 56.24 134 56.12 134.08 55.92C134.12 55.8 134.16 55.68 134.2 55.52C134.56 55.48 134.64 55.08 134.68 54.76C134.72 54.52 134.8 53.92 134.4 53.92C134.4 53.88 134.4 53.84 134.44 53.84C134.48 53.64 134.52 53.44 134.52 53.24C134.52 53.04 134.48 52.84 134.4 52.68C134.36 52.64 134.32 52.56 134.24 52.56C134.28 52.52 134.28 52.44 134.28 52.4C134.28 51.92 133.8 51.64 133.48 51.52C133.2 51.4 132.88 51.36 132.56 51.36C132.24 51.36 131.96 51.44 131.64 51.52C131.32 51.64 130.84 51.88 130.84 52.4C130.84 52.48 130.84 52.52 130.88 52.56C130.8 52.56 130.76 52.64 130.72 52.68C130.64 52.84 130.6 53.04 130.6 53.24C130.6 53.44 130.64 53.64 130.68 53.84C130.68 53.88 130.68 53.92 130.72 53.92C130.36 53.92 130.4 54.52 130.44 54.76C130.48 55.04 130.6 55.48 130.92 55.52C130.96 55.64 130.96 55.8 131.04 55.92C131.12 56.08 131.24 56.24 131.36 56.36C131.36 56.56 131.36 56.8 131.4 57C131.4 57 131.4 57.04 131.4 57.08C131.4 57.08 131.32 57.12 131.32 57.16C131.28 57.2 131.2 57.24 131.16 57.28L131 57.32H130.96C130.88 57.36 130.76 57.4 130.64 57.44C130.52 57.48 130.4 57.56 130.24 57.6C130 57.72 129.76 57.76 129.56 57.88C129 58.16 128.24 58.92 128.12 60.08C128.08 60.6 128.36 60.96 128.88 60.96L132.56 61L136.24 60.96C136.76 60.96 137.08 60.64 137 60.08Z" fill="#3071FF"/>
<path fill-rule="evenodd" clip-rule="evenodd" d="M63.8 140.4C63.8 140.4 53.24 152.52 51.4 168.36C49.56 184.16 52.72 200 52.72 200H96L94.8 146.08L63.8 140.4Z" fill="#CFDEFF"/>
<path fill-rule="evenodd" clip-rule="evenodd" d="M91.68 139.48C78.72 154.24 86.64 163.32 85.28 174.68C83.4 190.04 80.84 187.76 83.6 200H96L94.8 146.08L91.68 139.48Z" fill="#E6EEFF"/>
<path fill-rule="evenodd" clip-rule="evenodd" d="M58.0402 64.28C57.8802 64.4 64.0002 82.08 74.0402 78.72C84.0802 75.32 74.0002 54.8 74.0002 54.8L58.0402 64.28Z" fill="#142585"/>
<path fill-rule="evenodd" clip-rule="evenodd" d="M70.2401 94.16L67.7601 118.24C67.7601 118.24 51.8801 114.52 51.8001 114C48.3601 84.84 68.0801 85.12 68.0801 85.12L70.2401 94.16Z" fill="#82AAFF"/>
<path fill-rule="evenodd" clip-rule="evenodd" d="M82.4001 73.36C82.4001 73.36 81.5601 81.36 80.8801 87.96C80.6801 89.72 79.5601 91.24 77.9601 91.96C76.3201 92.68 74.4401 92.44 73.0401 91.36C72.5601 91 72.1201 90.68 71.7201 90.36C69.8001 88.88 68.8801 86.44 69.3601 84.08C70.6401 78 72.9601 66.88 72.9601 66.88L82.4001 73.36Z" fill="#F5B8B0"/>
<path fill-rule="evenodd" clip-rule="evenodd" d="M82.0001 77.48C82.0001 77.48 79.3601 77.84 76.8801 75.8C76.8801 75.8 79.4801 79.92 81.6401 80.72L82.0001 77.48Z" fill="#E09F98"/>
<path fill-rule="evenodd" clip-rule="evenodd" d="M65.68 57.36C65.04 54.08 67.2 50.88 70.48 50.24C74 49.56 78.44 48.72 81.92 48.04C85.2 47.4 87.52 49.84 89.04 52.84C90.88 56.52 91.92 63.64 92.24 69.32C92.4 72.68 90.36 76 87.12 76.96C81.52 78.64 69.76 75.88 69.12 72.6C68.16 67.76 66.6 62.2 65.68 57.36Z" fill="#F5B8B0"/>
<path fill-rule="evenodd" clip-rule="evenodd" d="M55.8001 55.28C55.8001 55.28 69.9201 33.36 87.2001 46.88C87.2001 46.88 89.4001 67.64 58.7601 67.2C50.2001 67.08 55.8001 55.28 55.8001 55.28Z" fill="#142585"/>
<path fill-rule="evenodd" clip-rule="evenodd" d="M83.2402 104.04L82.2002 92.92L117.6 112.64L144.28 106.76L149.88 111.48C149.88 111.48 133.24 119.28 123.04 123.2C119.88 124.4 116.36 124.28 113.28 122.88C106.32 119.64 94.2802 114.04 94.2802 114.04L83.2402 104.04Z" fill="#F5B8B0"/>
<path fill-rule="evenodd" clip-rule="evenodd" d="M98.7602 119.72L99.9602 120.44C99.9602 120.44 106.24 105.44 105.88 105.04C97.6802 95.84 91.1202 91.6 86.0002 89.96C84.4402 89.48 82.9202 88.88 81.4402 88.2C77.4402 86.36 71.4802 87.64 69.4402 85.64C68.9202 85.12 69.3202 84.08 69.3202 84.08L63.8802 85.68C63.8802 85.68 59.8802 87.4 59.3602 91.4C57.7202 103.8 58.2802 107.64 61.2002 120C62.2402 124.52 63.0802 139.44 61.7602 143.08C58.1602 153.28 93.8402 149.56 94.2002 144.96C94.2002 144.96 96.7602 138.48 97.2402 132.8C97.6402 128.32 98.2802 123.64 98.7602 119.72Z" fill="#CFDEFF"/>
<path fill-rule="evenodd" clip-rule="evenodd" d="M149.88 111.48C149.88 111.48 153.32 108 156.48 104.56C159.96 100.8 159.44 98.68 155.44 96.84C154.32 96.32 151 97.56 151 97.56L146.64 103.12C146.64 103.12 140.8 108.76 143.52 111.56C146.2 114.32 149.88 111.48 149.88 111.48Z" fill="#F5B8B0"/>
<path fill-rule="evenodd" clip-rule="evenodd" d="M155.76 98.28C155.76 98.28 161.12 94.64 160.12 92.28C159.16 89.96 151 97.52 151 97.52L153.44 101.28L155.76 98.28Z" fill="#F5B8B0"/>
<path fill-rule="evenodd" clip-rule="evenodd" d="M70.3601 79.28C70.3601 79.28 82.9601 78.36 78.8801 58.84C74.8001 39.32 65.4001 66.92 65.4001 66.92L70.3601 79.28Z" fill="#142585"/>
<path fill-rule="evenodd" clip-rule="evenodd" d="M83.4001 66.76C83.4401 69.48 81.2401 71.72 78.5201 71.76C75.8001 71.8 73.5601 69.6 73.5201 66.88C73.4801 64.16 75.6801 61.92 78.4001 61.88C81.1601 61.84 83.4001 64.04 83.4001 66.76Z" fill="#F5B8B0"/>
<path fill-rule="evenodd" clip-rule="evenodd" d="M98.76 119.72C98.28 123.64 97.64 128.32 97.28 132.72C96.8 138.44 94.8 146.04 94.8 146.04C94.68 147.56 91.48 148.04 85.8 148.56C86.92 143.36 92.28 143.44 90.16 132.64C89.12 127.4 90.6401 121.44 90.4401 113.88L98.76 119.72Z" fill="#E6EEFF"/>
<path d="M89.2001 90.6L84.6801 87.04L64.6001 83.88C64.6001 83.88 66.9601 92.68 75.7601 90.84C80.8401 89.76 89.2001 90.6 89.2001 90.6Z" fill="#F0F0F0"/>
<path fill-rule="evenodd" clip-rule="evenodd" d="M63.5601 62.28C65.2001 56.08 58.7601 50.76 53.0801 53.68C49.6401 55.44 46.6401 58.52 46.4401 63.92C45.9601 76.68 29.4001 79.48 36.5601 94.28C42.6001 106.68 20.8801 109 37.3601 126.2C52.4001 141.92 68.8401 120.6 64.3601 111.92C59.8801 103.2 55.4801 97.88 61.2001 92.12C69.9201 83.32 67.2801 77.88 63.2401 72.04C61.3601 69.32 62.6001 66.04 63.5601 62.28Z" fill="#142585"/>
<path fill-rule="evenodd" clip-rule="evenodd" d="M47.2801 61.68C47.2801 61.68 43.5601 69.52 39.6401 72.24C35.7201 74.92 38.0401 84.08 38.0401 84.08L38.6801 79.64C38.6801 79.64 37.8401 75.88 39.8001 74.04C41.7601 72.2 46.4001 69.76 47.6001 66.4C48.8801 63 47.2801 61.68 47.2801 61.68Z" fill="#142585"/>
<path fill-rule="evenodd" clip-rule="evenodd" d="M72.4001 53.32C72.4001 53.32 75.2801 50.68 79.8401 62.68C81.0801 65.96 76.0001 67.28 78.7601 69.24C81.5201 71.2 83.8001 60.96 81.3601 57.6C78.9201 54.24 76.8801 51.44 76.8401 48.6C76.8001 45.76 72.4001 53.32 72.4001 53.32Z" fill="#142585"/>
<g opacity="0.32">
<path d="M28.8001 97.48L21.6401 95.24C21.1601 95.08 20.9201 94.6 21.0401 94.12L23.2801 86.96C23.4401 86.48 23.9201 86.24 24.4001 86.36L31.5601 88.6C32.0401 88.76 32.2801 89.24 32.1601 89.72L29.9201 96.88C29.7601 97.4 29.2801 97.64 28.8001 97.48ZM23.0401 93.84L28.5201 95.56L30.2401 90.08L24.7601 88.36L23.0401 93.84Z" fill="white"/>
</g>
<g opacity="0.24">
<path d="M34.96 158.04C32.24 158.04 30 155.8 30 153.08C30 150.36 32.24 148.12 34.96 148.12C37.68 148.12 39.92 150.36 39.92 153.08C39.92 155.84 37.68 158.04 34.96 158.04ZM34.96 150.2C33.36 150.2 32.04 151.52 32.04 153.12C32.04 154.72 33.36 156.04 34.96 156.04C36.56 156.04 37.88 154.72 37.88 153.12C37.84 151.48 36.56 150.2 34.96 150.2Z" fill="white"/>
</g>
<g opacity="0.24">
<path d="M161.96 165.08C158.6 165.08 155.84 162.32 155.84 158.96C155.84 155.6 158.6 152.84 161.96 152.84C165.32 152.84 168.08 155.6 168.08 158.96C168.08 162.36 165.36 165.08 161.96 165.08ZM161.96 155.4C160 155.4 158.36 157 158.36 158.96C158.36 160.92 159.96 162.56 161.96 162.56C163.92 162.56 165.52 160.96 165.52 158.96C165.56 157 163.92 155.4 161.96 155.4Z" fill="white"/>
</g>
<path d="M98.6401 149.92C100.04 149.92 127.56 149.92 127.56 149.92" stroke="white" stroke-width="0.9459" stroke-miterlimit="10" stroke-linecap="round" stroke-linejoin="round"/>
<path d="M25.6401 173.16C27.0401 173.16 44.8401 173.16 44.8401 173.16" stroke="white" stroke-width="0.9459" stroke-miterlimit="10" stroke-linecap="round" stroke-linejoin="round"/>
<path d="M145.48 175.48C146.88 175.48 164.68 175.48 164.68 175.48" stroke="white" stroke-width="0.9459" stroke-miterlimit="10" stroke-linecap="round" stroke-linejoin="round"/>
<path d="M22.3201 74.56C23.7201 74.56 41.5201 74.56 41.5201 74.56" stroke="white" stroke-width="0.9459" stroke-miterlimit="10" stroke-linecap="round" stroke-linejoin="round"/>
<path opacity="0.28" d="M28.6801 139.16C28.6801 140.16 27.8801 140.96 26.8801 140.96C25.8801 140.96 25.0801 140.16 25.0801 139.16C25.0801 138.16 25.8801 137.36 26.8801 137.36C27.8801 137.36 28.6801 138.16 28.6801 139.16Z" fill="white"/>
<path opacity="0.28" d="M104.24 137.04C104.24 138.04 103.44 138.84 102.44 138.84C101.44 138.84 100.64 138.04 100.64 137.04C100.64 136.04 101.44 135.24 102.44 135.24C103.4 135.2 104.24 136.04 104.24 137.04Z" fill="white"/>
<path opacity="0.28" d="M173.6 129.84C173.6 130.84 172.8 131.64 171.8 131.64C170.8 131.64 170 130.84 170 129.84C170 128.84 170.8 128.04 171.8 128.04C172.8 128.04 173.6 128.84 173.6 129.84Z" fill="white"/>
<path opacity="0.28" d="M173.04 169.96C173.04 170.96 172.24 171.76 171.24 171.76C170.24 171.76 169.44 170.96 169.44 169.96C169.44 168.96 170.24 168.16 171.24 168.16C172.24 168.16 173.04 168.96 173.04 169.96Z" fill="white"/>
<path opacity="0.28" d="M24.84 55.52C24.84 56.52 24.04 57.32 23.04 57.32C22.04 57.32 21.24 56.52 21.24 55.52C21.24 54.52 22.04 53.72 23.04 53.72C24.04 53.72 24.84 54.52 24.84 55.52Z" fill="white"/>
</g>
<defs>
<clipPath id="clip0_506_2697">
<rect width="200" height="200" fill="white"/>
</clipPath>
</defs>
</svg>
