<svg width="200" height="200" viewBox="0 0 200 200" fill="none" xmlns="http://www.w3.org/2000/svg">
<path d="M145.8 168.48C153.88 168.44 161.12 163.64 164.32 156.2C176.64 127.52 199.8 56.44 139.16 34.16C91.2801 16.56 65.6 16.96 48.8 25.8C34.44 33.36 25.04 48.36 24.12 64.36C22.2 97.6 18.92 167.48 57.6 168.08C92.2 168.64 127.52 168.56 145.8 168.48Z" fill="#0D1458"/>
<path opacity="0.14" d="M44.2 164.36C52.28 153.72 69.48 137 103.24 125.2C141 112.04 161.92 78 170.88 59.36C188.64 90.08 173.48 134.84 164.32 156.2C161.16 163.6 153.88 168.44 145.8 168.48C127.52 168.56 92.2 168.64 57.6 168.08C52.44 168 48 166.68 44.2 164.36Z" fill="#929FFF"/>
<g opacity="0.28">
<path d="M172.56 78.56C172.56 79.24 173.12 79.8 173.8 79.8C174.48 79.8 175.04 79.24 175.04 78.56C175.04 77.88 174.48 77.32 173.8 77.32C173.12 77.36 172.56 77.88 172.56 78.56Z" fill="white"/>
<path d="M159.72 78.56C159.72 79.24 160.28 79.8 160.96 79.8C161.64 79.8 162.2 79.24 162.2 78.56C162.2 77.88 161.64 77.32 160.96 77.32C160.24 77.36 159.72 77.88 159.72 78.56Z" fill="white"/>
<path d="M146.84 78.56C146.84 79.24 147.4 79.8 148.08 79.8C148.76 79.8 149.32 79.24 149.32 78.56C149.32 77.88 148.76 77.32 148.08 77.32C147.4 77.36 146.84 77.88 146.84 78.56Z" fill="white"/>
<path d="M172.56 88.04C172.56 88.72 173.12 89.28 173.8 89.28C174.48 89.28 175.04 88.72 175.04 88.04C175.04 87.36 174.48 86.8 173.8 86.8C173.12 86.8 172.56 87.36 172.56 88.04Z" fill="white"/>
<path d="M159.72 88.04C159.72 88.72 160.28 89.28 160.96 89.28C161.64 89.28 162.2 88.72 162.2 88.04C162.2 87.36 161.64 86.8 160.96 86.8C160.24 86.8 159.72 87.36 159.72 88.04Z" fill="white"/>
<path d="M146.84 88.04C146.84 88.72 147.4 89.28 148.08 89.28C148.76 89.28 149.32 88.72 149.32 88.04C149.32 87.36 148.76 86.8 148.08 86.8C147.4 86.8 146.84 87.36 146.84 88.04Z" fill="white"/>
<path d="M172.56 97.48C172.56 98.16 173.12 98.72 173.8 98.72C174.48 98.72 175.04 98.16 175.04 97.48C175.04 96.8 174.48 96.24 173.8 96.24C173.12 96.28 172.56 96.84 172.56 97.48Z" fill="white"/>
<path d="M159.72 97.48C159.72 98.16 160.28 98.72 160.96 98.72C161.64 98.72 162.2 98.16 162.2 97.48C162.2 96.8 161.64 96.24 160.96 96.24C160.24 96.28 159.72 96.84 159.72 97.48Z" fill="white"/>
<path d="M146.84 97.48C146.84 98.16 147.4 98.72 148.08 98.72C148.76 98.72 149.32 98.16 149.32 97.48C149.32 96.8 148.76 96.24 148.08 96.24C147.4 96.28 146.84 96.84 146.84 97.48Z" fill="white"/>
</g>
<path d="M105.2 123.8C105.2 124.6 105.88 125.2 106.72 125.2C107.56 125.2 108.24 124.56 108.24 123.8C108.24 123 107.56 122.4 106.72 122.4C105.88 122.4 105.2 123.04 105.2 123.8Z" fill="#292685"/>
<path fill-rule="evenodd" clip-rule="evenodd" d="M128.16 101.8C120 100.6 115.36 99.92 107.8 101.28C103.52 103.8 98.7598 110.52 97.0798 116.44L110 124.68L139.52 109.2L128.16 101.8Z" fill="#E6EEFF"/>
<path fill-rule="evenodd" clip-rule="evenodd" d="M93.9998 109.8C102.48 109.4 105.12 105.6 116.4 105.04C126.68 104.56 136.32 108.96 144.2 108.6C147.88 108.44 152 122.24 151.52 125.88C148.44 149.44 148 190.04 148 190.04C145.2 193.84 142.4 197.16 139.64 199.96H91.1598C89.1198 197.76 87.0798 195.24 85.0398 192.48C84.9998 192.52 90.5598 109.96 93.9998 109.8Z" fill="#0D1458"/>
<path fill-rule="evenodd" clip-rule="evenodd" d="M87.9198 110.44L54.7198 156.16C54.7198 156.16 58.4398 169.44 63.1198 168.32C77.5998 164.84 97.0398 142.12 97.0398 142.12L87.9198 110.44Z" fill="#E6EEFF"/>
<path fill-rule="evenodd" clip-rule="evenodd" d="M123.68 200L122.28 154.16L132.96 106.76L140.68 106.4L146.28 108.8C152.56 111.6 155.48 115.72 155.2 122.44L150.52 167.32L153.88 200H123.68Z" fill="#E6EEFF"/>
<path fill-rule="evenodd" clip-rule="evenodd" d="M142.72 200L151.56 119.8C151.8 114.84 144.6 117.12 140.92 113.8L133 106.72L140.72 106.36L146.32 108.76C152.6 111.56 155.52 115.68 155.24 122.4L150.56 167.28L153.92 199.96L142.72 200Z" fill="#CFDEFF"/>
<path fill-rule="evenodd" clip-rule="evenodd" d="M128.16 101.8C128.16 101.8 134.24 107.8 127.12 122.4C124.4 128 120.76 143.68 122.32 155L138.2 131.52L132.84 125.48L142.28 120.08L140.84 106.16C136.28 104.56 136.16 104.28 128.16 101.8Z" fill="white"/>
<path fill-rule="evenodd" clip-rule="evenodd" d="M86.92 200L88.8 132.28C89.08 125.64 87.44 109.32 94.92 107.24L96.6 106.96L96.88 109.04C96.88 109.04 97.08 108 106.96 106.36C106.96 106.36 108.76 105.28 106.8 110.72C105.68 113.8 105.4 118.2 105.44 124C105.64 142.2 104.32 154 104.24 154.68L100.96 199.96H86.92V200Z" fill="#159EEC"/>
<path fill-rule="evenodd" clip-rule="evenodd" d="M153.88 115.2C153.88 115.2 174.32 151.52 176.28 168.6C177.36 178.16 177.24 190.44 176.92 199.36L159.12 199.56C159.56 190.32 159.72 178.04 158.08 172.2C155.28 162.12 140.72 140.96 140.72 140.96L153.88 115.2Z" fill="#E6EEFF"/>
<path fill-rule="evenodd" clip-rule="evenodd" d="M153.88 115.2C153.88 115.2 174.32 151.52 176.28 168.6C177.36 178.16 177.24 190.44 176.92 199.36L172.12 199.56C168.84 186.04 174.4 178.76 172.84 169.76C171.04 159.32 163.12 148.96 159.92 140.84C154.32 126.72 151.56 119.8 151.56 119.8L153.88 115.2Z" fill="#CFDEFF"/>
<path fill-rule="evenodd" clip-rule="evenodd" d="M42.92 80.96C42.92 80.96 38.48 72.76 41.24 70.4C44 68.04 49.48 83.16 49.48 83.16L43.84 86.36L42.92 80.96Z" fill="#F5B8B0"/>
<path fill-rule="evenodd" clip-rule="evenodd" d="M54.8798 110.32C54.8798 110.32 49.3998 106.88 44.2798 103.44C38.6798 99.68 38.7198 96.8 43.2798 93.16C44.5598 92.16 49.1998 92.72 49.1998 92.72L56.4798 98.52C56.4798 98.52 65.6798 104 63.0798 108.4C60.4398 112.84 54.8798 110.32 54.8798 110.32Z" fill="#F5B8B0"/>
<path fill-rule="evenodd" clip-rule="evenodd" d="M70.7998 150.64L62.9598 106.8L52.7998 109.2C52.7998 109.2 52.1198 154.28 55.3198 157.24C58.4798 160.16 70.2798 166.44 70.7998 150.64Z" fill="#F5B8B0"/>
<path fill-rule="evenodd" clip-rule="evenodd" d="M64.3599 112.64L49.7599 119.08C49.7599 119.08 51.8399 149.6 56.3999 161L64.2799 164.68L72.4399 157.44L64.3599 112.64Z" fill="#E6EEFF"/>
<path fill-rule="evenodd" clip-rule="evenodd" d="M49.8399 119.04L54.0399 117.2C54.8399 125.24 56.2399 136.6 58.2799 144.52L58.1599 144.68C58.1599 144.68 58.7999 146.92 59.8799 149.48C61.3999 153.16 63.8399 157.48 66.5599 156.84C76.4399 154.48 88.6399 143.12 95.3999 136.12L97.1199 142.04C97.1199 142.04 77.6799 164.76 63.1999 168.24C60.4799 168.88 58.0399 164.56 56.5199 160.88C55.4399 158.32 54.7999 156.08 54.7999 156.08L54.9199 155.92C51.4399 142.52 49.8399 119.04 49.8399 119.04Z" fill="#CFDEFF"/>
<path d="M57.1598 104.96H56.9598C70.1598 102.48 80.3198 91.72 80.4398 79.08L84.2398 54.84C84.5598 52.68 83.4398 50.6 81.4398 49.72L59.2798 39.92C58.3198 39.52 57.2398 39.48 56.2798 39.88L34.6798 48.96C32.7198 49.8 31.5198 51.8 31.7598 53.88L34.3998 78.64C34.2798 91.32 44.0798 103 57.1598 104.96Z" fill="#F5F6F7"/>
<path d="M57.2398 98.72H57.0798C67.6398 96.72 75.7598 88.12 75.8398 78L78.7598 55.44L57.7198 46.16L39.2398 53.92L39.0398 77.68C38.9198 87.8 46.7598 97.16 57.2398 98.72Z" fill="#E38B29"/>
<path d="M57.2397 98.72H57.0797L57.7197 46.16L36.4397 55.08L38.9997 77.68C38.9197 87.8 46.7597 97.16 57.2397 98.72Z" fill="#E38B29"/>
<path d="M57.5198 80.8C58.7598 80.8 59.7998 79.76 59.7998 78.52L59.7598 65.36C59.7598 64.12 58.7198 63.08 57.4798 63.08C56.2398 63.08 55.1998 64.12 55.1998 65.36L55.2398 78.52C55.2398 79.8 56.2798 80.8 57.5198 80.8Z" fill="#F6F3EE"/>
<path d="M66.1199 71.92C66.1199 70.68 65.1199 69.68 63.8799 69.68L50.6399 69.72C49.3999 69.72 48.3999 70.72 48.3999 71.96C48.3999 73.2 49.3999 74.2 50.6399 74.2L63.8799 74.16C65.1199 74.16 66.1199 73.16 66.1199 71.92Z" fill="#F6F3EE"/>
<path d="M125.08 98.44C130.28 100.32 134.4 104.64 136.48 109.76C137.84 113.08 136.72 116.76 137.6 120.2C138.68 124.4 141.12 128.08 142.64 132.12C143.12 133.44 141.12 134.36 140.64 133.04C138.24 126.72 134.8 121.68 134.96 114.68C135.12 108.36 130.04 102.6 124.28 100.52C122.92 100 123.72 97.96 125.08 98.44Z" fill="#159EEC"/>
<path d="M136.88 115.12C136.04 120.6 130.52 126.2 132.88 132.08C133.4 133.4 131.4 134.28 130.88 133C128.2 126.4 133.76 121.04 134.68 114.92C134.92 113.48 137.12 113.72 136.88 115.12Z" fill="#159EEC"/>
<path d="M139.8 135.64L138.08 152.52C137.56 156.16 137 158.2 132.48 157.84C132.48 158.48 132.44 159.12 132.48 159.72L133.2 159.8C136.52 160.12 139.52 157.72 139.88 154.4L141.92 134.16C142.24 130.88 140.16 132.4 139.8 135.64Z" fill="white"/>
<path d="M130.32 157.64L132.72 157.6C133.4 157.6 133.96 158.12 133.96 158.8V159.16C133.96 159.84 133.44 160.4 132.76 160.4L130.36 160.44C129.68 160.44 129.12 159.92 129.12 159.24V158.88C129.12 158.2 129.68 157.64 130.32 157.64Z" fill="#159EEC"/>
<path d="M134.04 135.36L139.6 151.4C140.92 154.84 141.96 156.68 146.28 155.28C146.44 155.88 146.6 156.52 146.72 157.12L146.04 157.36C142.88 158.44 139.4 156.8 138.32 153.64L131.64 134.44C130.6 131.28 132.96 132.28 134.04 135.36Z" fill="white"/>
<path d="M148.36 154.6L146.04 155.12C145.4 155.28 144.96 155.92 145.12 156.6L145.2 156.92C145.36 157.56 146 158 146.68 157.84L149 157.32C149.64 157.16 150.08 156.52 149.92 155.84L149.84 155.52C149.68 154.84 149 154.44 148.36 154.6Z" fill="#159EEC"/>
<path d="M140.72 134.24L141.96 134.16C142.6 134.12 143.08 133.6 143.04 132.96L143 132.32C142.96 131.68 142.44 131.2 141.8 131.24L140.56 131.32C139.92 131.36 139.44 131.88 139.48 132.52L139.52 133.16C139.56 133.8 140.08 134.28 140.72 134.24Z" fill="#159EEC"/>
<path d="M132.2 134.8L133.4 134.48C134 134.32 134.4 133.68 134.24 133.08L134.08 132.44C133.92 131.84 133.28 131.44 132.68 131.6L131.48 131.92C130.88 132.08 130.48 132.72 130.64 133.32L130.8 133.96C130.96 134.6 131.56 134.96 132.2 134.8Z" fill="#159EEC"/>
<path fill-rule="evenodd" clip-rule="evenodd" d="M104.48 61.4C104.48 61.4 91.04 66.32 100.36 79.2C109.68 92.08 104.48 61.4 104.48 61.4Z" fill="#142585"/>
<path fill-rule="evenodd" clip-rule="evenodd" d="M100.48 71.6C100.96 67.28 103.24 63.32 106.72 60.72C110.2 58.12 114.6 57.04 118.92 57.8C127.24 59.24 132.96 66.88 132.04 75.28C131.48 80.12 130.28 81.88 129.8 86.44C128.76 97.08 111.36 98.8 108.56 98.32C102.44 97.28 98.24 91.64 98.92 85.48C99.4 81.24 99.96 76.28 100.48 71.6Z" fill="#F5B8B0"/>
<path fill-rule="evenodd" clip-rule="evenodd" d="M127.08 109.2L124.12 88.04L109.12 90.96L108.56 110.56C109.4 122.76 127.96 121.44 127.08 109.2Z" fill="#F5B8B0"/>
<path fill-rule="evenodd" clip-rule="evenodd" d="M123.12 71.36C123.12 71.36 120.04 85.64 131.36 86.8C131.36 86.8 139.52 77.96 136.44 69.2C134.24 62.84 116.68 51 106.2 55.56C95.7599 60.08 101.24 70.08 123.12 71.36Z" fill="#142585"/>
<path fill-rule="evenodd" clip-rule="evenodd" d="M108.88 98.36C108.88 98.36 116.48 99.2 123.56 94.2C123.56 94.2 115.84 103.88 108.76 102.56L108.88 98.36Z" fill="#E09F98"/>
<path d="M102.48 83.4C104.16 83.4 105.68 82.24 106 80.56L106.08 80.16C106.28 79.28 106.08 78.36 105.6 77.6C105.08 76.84 104.28 76.32 103.36 76.16L99.6 75.52C97.72 75.2 95.88 76.44 95.48 78.28L95.4 78.68C95.2 79.56 95.4 80.48 95.88 81.24C96.4 82 97.2 82.52 98.12 82.68L101.88 83.32C102.08 83.36 102.28 83.4 102.48 83.4ZM99.04 76.16C99.2 76.16 99.36 76.16 99.52 76.2L103.28 76.84C104 76.96 104.64 77.36 105.08 77.96C105.48 78.56 105.64 79.28 105.48 80L105.4 80.4C105.08 81.92 103.56 82.92 102.04 82.68L98.28 82.04C97.56 81.92 96.92 81.52 96.48 80.92C96.08 80.32 95.92 79.6 96.08 78.88L96.16 78.48C96.44 77.08 97.68 76.16 99.04 76.16Z" fill="#142585"/>
<path d="M115.04 85.16C116.72 85.16 118.24 84 118.56 82.32L118.64 81.92C118.84 81.04 118.64 80.12 118.16 79.36C117.64 78.6 116.84 78.08 115.92 77.92L112.16 77.28C110.28 76.96 108.44 78.2 108.04 80.04L107.96 80.44C107.76 81.32 107.96 82.24 108.44 83C108.96 83.76 109.76 84.28 110.68 84.44L114.44 85.08C114.64 85.12 114.84 85.16 115.04 85.16ZM111.6 77.92C111.76 77.92 111.92 77.92 112.08 77.96L115.84 78.6C116.56 78.72 117.2 79.12 117.64 79.72C118.04 80.32 118.2 81.04 118.04 81.76L117.96 82.16C117.64 83.68 116.12 84.68 114.6 84.44L110.84 83.8C110.12 83.68 109.48 83.28 109.04 82.68C108.64 82.08 108.48 81.36 108.64 80.64L108.72 80.24C109 78.88 110.24 77.92 111.6 77.92Z" fill="#142585"/>
<path d="M118.24 82.6L132.16 81.6C132.36 81.6 132.48 81.44 132.48 81.24C132.48 81.04 132.32 80.92 132.12 80.92L118.24 81.92C118.04 81.92 117.92 82.08 117.92 82.28C117.92 82.44 118.04 82.6 118.24 82.6Z" fill="#142585"/>
<path fill-rule="evenodd" clip-rule="evenodd" d="M129.52 81.04C127.4 80.72 125.36 82.6 124.96 85.28C124.52 87.96 125.88 90.4 128 90.76C130.12 91.08 132.16 89.2 132.56 86.52C132.96 83.84 131.6 81.36 129.52 81.04Z" fill="#F5B8B0"/>
<path fill-rule="evenodd" clip-rule="evenodd" d="M97.84 200L101.72 146.64L100.04 114.04L95.12 106.32L91.84 106.88C84.36 108.96 86 125.28 85.72 131.92L83.84 200H97.84Z" fill="#E6EEFF"/>
<path fill-rule="evenodd" clip-rule="evenodd" d="M103.72 110.36C102.6 113.44 102.32 117.84 102.36 123.64C102.56 142.4 101.16 154.36 101.16 154.36L90.7598 132.12L97.8798 126.28L90.1198 120.32L93.8398 105.32C93.8398 105.32 97.9198 102.96 107.8 101.32C107.8 101.32 105.68 104.92 103.72 110.36Z" fill="white"/>
<path d="M95.9598 132.36C98.6398 126.56 97.8798 119.24 99.0398 113.04C100.08 107.28 102.32 101.24 108.48 99.52C109.52 99.24 109.84 100.88 108.8 101.2C102.28 103 100.96 110.8 100.2 116.56C99.5198 121.88 99.7998 128 97.5598 132.96C97.1198 133.92 95.5198 133.36 95.9598 132.36Z" fill="#159EEC"/>
<path d="M92.0789 144.574C89.6383 143.145 88.8176 140.009 90.2459 137.568C91.6742 135.128 94.8105 134.307 97.2511 135.735C99.6917 137.164 100.512 140.3 99.0841 142.741C97.6558 145.181 94.5195 146.002 92.0789 144.574Z" fill="#159EEC"/>
<path d="M94.1999 136.2L97.5199 137.16L98.7599 132.8C98.9199 132.28 98.5999 131.76 98.1199 131.64L96.6399 131.2C96.1199 131.04 95.5999 131.36 95.4799 131.84L94.1999 136.2Z" fill="#159EEC"/>
<path d="M93.2891 142.709C91.2775 141.851 90.3423 139.525 91.2003 137.513C92.0582 135.502 94.3845 134.566 96.3962 135.424C98.4078 136.282 99.343 138.609 98.4851 140.62C97.6271 142.632 95.3008 143.567 93.2891 142.709Z" fill="#FBFBFF"/>
<path d="M91.3875 138.801C90.6921 136.728 91.8092 134.483 93.8827 133.787C95.9563 133.092 98.201 134.209 98.8965 136.283C99.592 138.356 98.4748 140.601 96.4013 141.296C94.3277 141.992 92.083 140.875 91.3875 138.801Z" fill="#159EEC"/>
<path d="M93.1997 136C92.7197 137.12 93.1997 138.4 94.3197 138.92C95.4397 139.4 96.7197 138.92 97.2397 137.8C97.7197 136.68 97.2397 135.4 96.1197 134.88C94.9997 134.4 93.7197 134.88 93.1997 136Z" fill="#142585"/>
<path d="M106.2 80.04L108.04 80.28C108.2 80.32 108.36 80.2 108.36 80.04C108.4 79.88 108.28 79.72 108.12 79.72L106.28 79.48C106.12 79.44 105.96 79.56 105.96 79.72C105.92 79.84 106.04 80 106.2 80.04Z" fill="#142585"/>
<g opacity="0.32">
<path d="M147.52 71L156.88 68.08C157.48 67.88 157.84 67.24 157.64 66.64L154.72 57.28C154.52 56.68 153.88 56.32 153.28 56.52L143.92 59.44C143.32 59.64 142.96 60.28 143.16 60.88L146.08 70.24C146.24 70.84 146.88 71.2 147.52 71ZM155.04 66.2L147.92 68.44L145.68 61.32L152.8 59.08L155.04 66.2Z" fill="white"/>
</g>
<g opacity="0.24">
<path d="M37.4799 153.56C42.3999 153.56 46.4399 149.56 46.4399 144.6C46.4399 139.68 42.4399 135.64 37.4799 135.64C32.5599 135.64 28.5199 139.64 28.5199 144.6C28.5199 149.52 32.5599 153.56 37.4799 153.56ZM37.4799 139.36C40.3599 139.36 42.7199 141.72 42.7199 144.6C42.7199 147.48 40.3599 149.84 37.4799 149.84C34.5999 149.84 32.2399 147.48 32.2399 144.6C32.2399 141.72 34.5999 139.36 37.4799 139.36Z" fill="white"/>
</g>
<path d="M45.8799 113.92C44.3999 113.92 25.5999 113.92 25.5999 113.92" stroke="white" stroke-width="0.9459" stroke-miterlimit="10" stroke-linecap="round" stroke-linejoin="round"/>
<path d="M77 174.52C75.52 174.52 56.72 174.52 56.72 174.52" stroke="white" stroke-width="0.9459" stroke-miterlimit="10" stroke-linecap="round" stroke-linejoin="round"/>
<path d="M181.88 113.92C180.4 113.92 161.6 113.92 161.6 113.92" stroke="white" stroke-width="0.9459" stroke-miterlimit="10" stroke-linecap="round" stroke-linejoin="round"/>
<path opacity="0.28" d="M40.4798 167.28C40.4798 168.32 41.3198 169.2 42.3998 169.2C43.4398 169.2 44.3198 168.36 44.3198 167.28C44.3198 166.24 43.4798 165.36 42.3998 165.36C41.3598 165.36 40.4798 166.24 40.4798 167.28Z" fill="white"/>
<path opacity="0.28" d="M24.5599 94.2C24.5599 95.24 25.3999 96.12 26.4799 96.12C27.5199 96.12 28.3999 95.28 28.3999 94.2C28.3999 93.16 27.5599 92.28 26.4799 92.28C25.3999 92.28 24.5599 93.12 24.5599 94.2Z" fill="white"/>
<path opacity="0.28" d="M84.64 92.6C84.64 93.64 85.48 94.52 86.56 94.52C87.64 94.52 88.48 93.68 88.48 92.6C88.48 91.52 87.64 90.68 86.56 90.68C85.48 90.68 84.64 91.52 84.64 92.6Z" fill="white"/>
</svg>
